<?xml version="1.0" encoding="UTF-8"?>
<svg version="1.1" xmlns="http://www.w3.org/2000/svg" width="500" height="500">
<path d="M0 0 C31.02 0 62.04 0 94 0 C94.02208544 35.32991034 94.04053418 70.65981392 94.05106533 105.98972909 C94.05231589 110.16991055 94.05361023 114.350092 94.05493164 118.53027344 C94.05532511 119.77846233 94.05532511 119.77846233 94.05572652 121.05186716 C94.06006637 134.48873317 94.06794458 147.92559486 94.0771528 161.36245832 C94.08653633 175.17130616 94.09206552 188.98015176 94.09408849 202.78900266 C94.095454 211.2954718 94.09975149 219.80192873 94.10791647 228.3083941 C94.11324201 234.15810206 94.11479122 240.00780379 94.11350138 245.85751399 C94.11286699 249.22194742 94.11433588 252.58634273 94.11920547 255.95077515 C94.17238802 294.62035833 94.17238802 294.62035833 91.75 310.625 C91.62214111 311.48488525 91.49428223 312.34477051 91.36254883 313.23071289 C87.14456495 339.83213124 76.25123437 363.08220871 57 382 C55.87658203 383.12148438 55.87658203 383.12148438 54.73046875 384.265625 C24.67695939 412.59063939 -19.71516357 419.2192373 -59.3125 419.25 C-60.10035889 419.25067474 -60.88821777 419.25134949 -61.69995117 419.25204468 C-98.70774068 419.2020114 -137.26805096 411.92639288 -166 387 C-167.22976562 385.98679687 -167.22976562 385.98679687 -168.484375 384.953125 C-195.9625 361.57111801 -206.53783174 324.62168258 -210 290 C-210.33 279.11 -210.66 268.22 -211 257 C-179.98 257 -148.96 257 -117 257 C-116.01 267.89 -115.02 278.78 -114 290 C-110.6344905 306.8275475 -106.61821522 326.850028 -92 338 C-76.58157411 348.23763649 -58.89000062 350.65904757 -40.79296875 347.33984375 C-28.37417768 344.17695429 -18.92599123 337.80759072 -12 327 C-2.23357838 310.18634607 -0.85917734 290.80660264 -0.84178162 271.77520752 C-0.83684364 270.60522555 -0.83190566 269.43524358 -0.82681805 268.22980762 C-0.81421768 265.01887092 -0.80586456 261.80795725 -0.79939139 258.59700346 C-0.79131788 255.12068703 -0.77764455 251.64439183 -0.76467896 248.16809082 C-0.74301384 242.15726647 -0.72483342 236.14643986 -0.70907402 230.13559723 C-0.68628394 221.44511309 -0.65815424 212.75465256 -0.62875474 204.06418857 C-0.58119025 189.96174816 -0.53789618 175.85929804 -0.49731445 161.75683594 C-0.45790262 148.06411993 -0.41646292 134.37141252 -0.37231445 120.67871094 C-0.36822804 119.41097984 -0.36822804 119.41097984 -0.36405908 118.11763802 C-0.35037867 113.87740929 -0.33665858 109.63718069 -0.32291877 105.39695215 C-0.20912922 70.26465169 -0.10307305 35.13233386 0 0 Z " fill="#2DAA99" transform="translate(226,40)"/>
<path d="M0 0 C2.74903053 -0.29249568 5.27234052 -0.38640387 8.02354622 -0.35352612 C9.28868543 -0.35618448 9.28868543 -0.35618448 10.57938301 -0.35889654 C13.43529678 -0.36117875 16.29066933 -0.34185171 19.14651489 -0.32279968 C21.19740669 -0.31999432 23.24830064 -0.31850825 25.29919434 -0.3182373 C30.97039669 -0.31362049 36.64139228 -0.29009845 42.31252947 -0.26371942 C48.50866875 -0.23821328 54.70483446 -0.2301039 60.90101433 -0.21983814 C71.57320506 -0.19982679 82.24531435 -0.16914025 92.91744995 -0.13056946 C108.20918909 -0.07534594 123.50091443 -0.03880965 138.79272461 -0.00549316 C175.57019325 0.084147 212.34759438 0.19993635 249.125 0.3125 C331.25375 0.539375 413.3825 0.76625 498 1 C498 165.67 498 330.34 498 500 C333 500 168 500 -2 500 C-2.04125 418.056875 -2.0825 336.11375 -2.125 251.6875 C-2.14320801 225.76791748 -2.16141602 199.84833496 -2.18017578 173.14331055 C-2.18920898 141.60900879 -2.18920898 141.60900879 -2.19088745 126.86897278 C-2.19288204 115.8422064 -2.20152564 104.81546106 -2.21334685 93.78870245 C-2.22522749 82.55528108 -2.22952181 71.32187481 -2.2268899 60.08844589 C-2.22567978 53.98673394 -2.22766058 47.88506822 -2.23843026 41.78336465 C-2.24809455 36.2747368 -2.24869169 30.76618826 -2.24180222 25.25755692 C-2.24094835 23.2577237 -2.24353419 21.2578857 -2.24976516 19.25806201 C-2.25771549 16.54893495 -2.25351212 13.84009864 -2.24609566 11.13097668 C-2.25134971 10.34146385 -2.25660376 9.55195103 -2.26201702 8.73851357 C-2.23833227 4.94906587 -2.15554335 3.23331502 0 0 Z M6 12 C6 170.4 6 328.8 6 492 C165.72 492 325.44 492 490 492 C490 332.94 490 173.88 490 10 C371.32375 9.938125 371.32375 9.938125 250.25 9.875 C225.22704102 9.85679199 200.20408203 9.83858398 174.42285156 9.81982422 C152.08004788 9.81313721 152.08004788 9.81313721 129.73724365 9.80911255 C119.75074327 9.80724196 109.76426507 9.79988238 99.777771 9.78884888 C88.27211208 9.77615563 76.76647455 9.77031931 65.26080857 9.7731101 C59.36992658 9.77431965 53.47909247 9.7723464 47.58821917 9.76156974 C42.26863311 9.75189689 36.94912918 9.75131402 31.62953949 9.75819778 C29.69957426 9.7590508 27.76960406 9.75647218 25.83964872 9.75023484 C23.22250723 9.7422691 20.60566559 9.74649752 17.98852921 9.75390434 C17.22891845 9.74865029 16.46930769 9.74339624 15.68667842 9.73798298 C11.6459595 9.76403971 9.72697814 10.13651093 6 12 Z " fill="#31A999" transform="translate(2,0)"/>
<path d="M0 0 C1.35093055 1.1462441 2.68522345 2.31245989 4 3.5 C4.66 4.056875 5.32 4.61375 6 5.1875 C18.36800521 16.39600472 25.24757214 32.99242862 26.23828125 49.4609375 C26.75267787 69.7130081 21.3633866 87.58202751 7.2109375 102.48950195 C-6.33473256 116.06082669 -23.21388074 122.6530199 -42.125 122.75 C-43.59839844 122.7809375 -43.59839844 122.7809375 -45.1015625 122.8125 C-52.18479629 122.84978018 -58.28133172 121.7067821 -65 119.5 C-66.08152344 119.14679688 -67.16304688 118.79359375 -68.27734375 118.4296875 C-84.80307539 111.87763531 -98.03343101 99.27689521 -105.546875 83.1875 C-113.20484979 64.08760994 -113.00755886 44.91069447 -105.5625 25.8125 C-98.05130923 9.34565871 -83.68567131 -3.90350159 -66.96972656 -10.79980469 C-44.07387013 -18.93878786 -19.20996857 -14.36628867 0 0 Z " fill="#2DAA99" transform="translate(443,327.5)"/>
<path d="M0 0 C159.72 0 319.44 0 484 0 C484 0.99 484 1.98 484 3 C426.98633587 3.81406974 369.98583175 4.13419475 312.96672051 4.07177609 C302.23380444 4.06035824 291.50088815 4.05608634 280.76796712 4.05223143 C261.64429949 4.04527718 242.52063634 4.0345575 223.39697266 4.02050781 C222.26835281 4.01968 221.13973296 4.01885219 219.97691251 4.01799929 C213.09818455 4.0129341 206.21945665 4.00777922 199.34072876 4.00260353 C188.86468518 3.9947337 178.3886415 3.98701047 167.91259766 3.97949219 C166.76057723 3.97866406 165.60855681 3.97783593 164.42162667 3.97698271 C145.2403155 3.96331825 126.05900422 3.95355661 106.87768948 3.94658184 C95.12100742 3.94211468 83.364338 3.93410454 71.60766186 3.92143703 C63.61343257 3.91303979 55.61920621 3.90812721 47.62497281 3.90601182 C43.01841614 3.90466405 38.41187583 3.90163607 33.80532455 3.89425278 C29.59574433 3.88752972 25.38618783 3.88536218 21.17660274 3.88688838 C19.65152004 3.88661598 18.12643654 3.88463004 16.60135864 3.8807956 C14.53594592 3.87584073 12.47062522 3.87700606 10.40521049 3.87974548 C9.25646914 3.87882369 8.10772779 3.8779019 6.9241761 3.87695217 C4.42887474 3.98195317 2.37441553 4.26900004 0 5 C0 3.35 0 1.7 0 0 Z " fill="#65BEB2" transform="translate(8,7)"/>
<path d="M0 0 C38.94 0 77.88 0 118 0 C118 2.97 118 5.94 118 9 C79.06 9 40.12 9 0 9 C0 6.03 0 3.06 0 0 Z " fill="#2CA998" transform="translate(351,41)"/>
<path d="M0 0 C31.02 0 62.04 0 94 0 C94.99 10.89 95.98 21.78 97 33 C99.50882741 45.68374171 99.50882741 45.68374171 103.328125 57.70703125 C104 60 104 60 103 62 C102.67 61.01 102.34 60.02 102 59 C101.34 59 100.68 59 100 59 C97.89030725 54.37562884 96.96824365 49.64528352 96 44.6875 C95.82629883 43.80030273 95.65259766 42.91310547 95.47363281 41.99902344 C92.89782836 28.53041743 92 15.87973311 92 2 C62.3 2 32.6 2 2 2 C2 12.23 2 22.46 2 33 C1.67 33 1.34 33 1 33 C0.67 22.11 0.34 11.22 0 0 Z " fill="#6BBBB0" transform="translate(15,297)"/>
<path d="M0 0 C38.94 0 77.88 0 118 0 C118 2.97 118 5.94 118 9 C79.06 9 40.12 9 0 9 C0 6.03 0 3.06 0 0 Z M2 1 C2 3.31 2 5.62 2 8 C39.62 8 77.24 8 116 8 C116 6.02 116 4.04 116 2 C112.6951709 1.26146567 109.6446998 0.87584233 106.26066589 0.87974548 C105.33664978 0.87837082 104.41263367 0.87699615 103.46061707 0.87557983 C102.45936295 0.87917511 101.45810883 0.88277039 100.42651367 0.88647461 C98.83070969 0.88625557 98.83070969 0.88625557 97.20266724 0.8860321 C93.69108023 0.886728 90.17954647 0.89450532 86.66796875 0.90234375 C84.23130828 0.90420908 81.79464743 0.90563244 79.35798645 0.90663147 C72.94811974 0.91044761 66.53827572 0.92027022 60.12841797 0.93133545 C53.58626614 0.94156896 47.04411065 0.94613325 40.50195312 0.95117188 C27.66795907 0.96189327 14.83398074 0.97876637 2 1 Z " fill="#4A9F93" transform="translate(351,41)"/>
<path d="M0 0 C1.32 0.66 2.64 1.32 4 2 C-2.73226056 11.42962323 -10.72138924 19.49360138 -21 25 C-21.66 24.67 -22.32 24.34 -23 24 C-22.505 22.515 -22.505 22.515 -22 21 C-21.01 21 -20.02 21 -19 21 C-18.67 20.34 -18.34 19.68 -18 19 C-17.34 19.33 -16.68 19.66 -16 20 C-16 19.01 -16 18.02 -16 17 C-15.01 17 -14.02 17 -13 17 C-13 16.34 -13 15.68 -13 15 C-12.01 15 -11.02 15 -10 15 C-10 14.34 -10 13.68 -10 13 C-9.01 13 -8.02 13 -7 13 C-7.33 11.68 -7.66 10.36 -8 9 C-7.01 9 -6.02 9 -5 9 C-5 8.34 -5 7.68 -5 7 C-4.34 7 -3.68 7 -3 7 C-3.33 5.35 -3.66 3.7 -4 2 C-3.34 2 -2.68 2 -2 2 C-2 2.66 -2 3.32 -2 4 C-1.34 3.67 -0.68 3.34 0 3 C0 2.01 0 1.02 0 0 Z " fill="#68BDB1" transform="translate(454,418)"/>
<path d="M0 0 C0.33 0 0.66 0 1 0 C1.04487549 0.61818604 1.08975098 1.23637207 1.13598633 1.87329102 C2.31458734 17.68826722 3.74888163 32.72797567 9.328125 47.70703125 C10 50 10 50 9 52 C8.505 50.515 8.505 50.515 8 49 C7.34 49 6.68 49 6 49 C-0.82307453 33.66344958 -0.55272501 16.42018446 0 0 Z " fill="#78C4BA" transform="translate(109,307)"/>
<path d="M0 0 C1.56234375 0.24556641 1.56234375 0.24556641 3.15625 0.49609375 C9.25468399 1.258398 15.36462636 1.1063241 21.5 1.0625 C22.70398438 1.05798828 23.90796875 1.05347656 25.1484375 1.04882812 C28.09901073 1.0371195 31.04947859 1.02071995 34 1 C32.25864243 3.20070064 31.38735276 3.94071528 28.56738281 4.37231445 C27.62217773 4.3693335 26.67697266 4.36635254 25.703125 4.36328125 C24.6615625 4.36263672 23.62 4.36199219 22.546875 4.36132812 C21.45890625 4.34521484 20.3709375 4.32910156 19.25 4.3125 C18.1775 4.31572266 17.105 4.31894531 16 4.32226562 C10.28946949 4.28358592 5.38684458 3.93156856 0 2 C0 1.34 0 0.68 0 0 Z " fill="#68BAB0" transform="translate(150,387)"/>
<path d="M0 0 C0.33 0 0.66 0 1 0 C1.15490223 5.73138244 0.65244885 10.89349206 -0.5 16.5 C-0.64308594 17.22703125 -0.78617187 17.9540625 -0.93359375 18.703125 C-1.28233698 20.47009071 -1.64019723 22.23525309 -2 24 C-2.66 24 -3.32 24 -4 24 C-4.09765625 17.84765625 -4.09765625 17.84765625 -4 16 C-3.67 15.67 -3.34 15.34 -3 15 C-2.76572222 12.98405418 -2.58663876 10.961526 -2.4375 8.9375 C-2.35371094 7.83277344 -2.26992188 6.72804688 -2.18359375 5.58984375 C-2.12300781 4.73519531 -2.06242187 3.88054687 -2 3 C-1.34 3 -0.68 3 0 3 C0 2.01 0 1.02 0 0 Z " fill="#64B8AC" transform="translate(317,341)"/>
<path d="M0 0 C6.69130267 -0.3827652 12.99477198 0.1620746 19.5625 1.375 C20.26503906 1.50108643 20.96757812 1.62717285 21.69140625 1.75708008 C26.74619453 2.74619453 26.74619453 2.74619453 29 5 C26.22829605 4.88613541 23.45821954 4.75939222 20.6875 4.625 C19.50897461 4.57859375 19.50897461 4.57859375 18.30664062 4.53125 C17.54931641 4.49257813 16.79199219 4.45390625 16.01171875 4.4140625 C14.96697388 4.36693115 14.96697388 4.36693115 13.90112305 4.31884766 C12 4 12 4 9 2 C6.72087062 1.54605448 6.72087062 1.54605448 4.3125 1.375 C3.50425781 1.30023438 2.69601562 1.22546875 1.86328125 1.1484375 C1.24839844 1.09945313 0.63351562 1.05046875 0 1 C0 0.67 0 0.34 0 0 Z " fill="#7CC6BD" transform="translate(395,313)"/>
<path d="M0 0 C5.75 -0.125 5.75 -0.125 8 1 C10.29924497 1.27024708 12.59801487 1.44497841 14.90625 1.62109375 C17 2 17 2 19 4 C21.32275177 4.40047444 23.65739357 4.7397104 26 5 C26 5.33 26 5.66 26 6 C19.83740819 6.22615016 14.48027281 5.44149898 8.5 4 C7.67757812 3.80921875 6.85515625 3.6184375 6.0078125 3.421875 C4.00337593 2.95572696 2.00141137 2.47897024 0 2 C0 1.34 0 0.68 0 0 Z " fill="#68BBAF" transform="translate(111,451)"/>
<path d="M0 0 C0.625 1.8125 0.625 1.8125 1 4 C0.01 5.485 0.01 5.485 -1 7 C-1.39013716 8.9896995 -1.73202649 10.99019869 -2 13 C-2.66 13 -3.32 13 -4 13 C-4 14.98 -4 16.96 -4 19 C-4.99 19.33 -5.98 19.66 -7 20 C-6.56999948 13.69332572 -4.57144825 4.57144825 0 0 Z " fill="#6DBFB4" transform="translate(341,347)"/>
<path d="M0 0 C1.65 0 3.3 0 5 0 C5 0.66 5 1.32 5 2 C7.31 2.66 9.62 3.32 12 4 C12 4.66 12 5.32 12 6 C12.99 6.33 13.98 6.66 15 7 C15 7.66 15 8.32 15 9 C9.26800429 7.53025751 4.66416601 4.55513098 0 1 C0 0.67 0 0.34 0 0 Z " fill="#6DBFB3" transform="translate(69,433)"/>
<path d="M0 0 C0.99 0.33 1.98 0.66 3 1 C2.55530671 6.03985731 0.28656638 8.37634988 -3 12 C-3.33 10.68 -3.66 9.36 -4 8 C-3.01 7.67 -2.02 7.34 -1 7 C-1.20625 6.21625 -1.4125 5.4325 -1.625 4.625 C-1.74875 3.75875 -1.8725 2.8925 -2 2 C-1.34 1.34 -0.68 0.68 0 0 Z " fill="#5EB8A9" transform="translate(292,404)"/>
<path d="M0 0 C2.27208206 1.1225346 4.54267645 2.24791521 6.8125 3.375 C7.45509766 3.69210937 8.09769531 4.00921875 8.75976562 4.3359375 C11.63194461 5.76458611 14.3267821 7.21785473 17 9 C13.86650268 10.04449911 13.01031744 9.93423645 10 9 C10 8.34 10 7.68 10 7 C9.21625 6.855625 8.4325 6.71125 7.625 6.5625 C5 6 5 6 3 5 C3 4.34 3 3.68 3 3 C2.01 2.67 1.02 2.34 0 2 C0 1.34 0 0.68 0 0 Z " fill="#6EC0B4" transform="translate(133,378)"/>
<path d="M0 0 C0.33 0.66 0.66 1.32 1 2 C1.66 2 2.32 2 3 2 C4.66666667 5.33333333 6.33333333 8.66666667 8 12 C7.01 12 6.02 12 5 12 C3.359375 10.13671875 3.359375 10.13671875 1.75 7.6875 C1.20859375 6.88699219 0.6671875 6.08648437 0.109375 5.26171875 C-1 3 -1 3 0 0 Z " fill="#6CBCB1" transform="translate(340,411)"/>
<path d="M0 0 C0.33 0.99 0.66 1.98 1 3 C-0.328125 5.2265625 -0.328125 5.2265625 -2.25 7.625 C-2.87390625 8.42164063 -3.4978125 9.21828125 -4.140625 10.0390625 C-6 12 -6 12 -9 13 C-7.47987323 7.59510481 -3.72614782 4.01507372 0 0 Z " fill="#70BFB5" transform="translate(351,334)"/>
<path d="M0 0 C2.31 0 4.62 0 7 0 C3.4912812 3.09592835 0.50802601 4.74194623 -4 6 C-4 4.68 -4 3.36 -4 2 C-2.68 2 -1.36 2 0 2 C0 1.34 0 0.68 0 0 Z " fill="#5EB7AA" transform="translate(260,434)"/>
<path d="M0 0 C1.32 0.66 2.64 1.32 4 2 C2.02 4.97 2.02 4.97 0 8 C-0.33 7.34 -0.66 6.68 -1 6 C-1.99 5.67 -2.98 5.34 -4 5 C-4 4.01 -4 3.02 -4 2 C-3.34 2 -2.68 2 -2 2 C-2 2.66 -2 3.32 -2 4 C-1.34 3.67 -0.68 3.34 0 3 C0 2.01 0 1.02 0 0 Z " fill="#59B9AB" transform="translate(454,418)"/>
<path d="M0 0 C0.33 0.99 0.66 1.98 1 3 C1.66 3 2.32 3 3 3 C3.99 6.3 4.98 9.6 6 13 C5.34 12.67 4.68 12.34 4 12 C4 11.34 4 10.68 4 10 C3.34 10 2.68 10 2 10 C0.39644899 6.49223216 -0.22036864 3.85645121 0 0 Z " fill="#67BAAE" transform="translate(113,346)"/>
<path d="M0 0 C2 3.75 2 3.75 2 6 C1.34 6 0.68 6 0 6 C0 7.65 0 9.3 0 11 C-1.32 11.33 -2.64 11.66 -4 12 C-2.66666667 8 -1.33333333 4 0 0 Z " fill="#75C0B7" transform="translate(221,351)"/>
<path d="M0 0 C0.33 0 0.66 0 1 0 C1.02693575 2.12493141 1.04636628 4.24995912 1.0625 6.375 C1.07410156 7.55835938 1.08570313 8.74171875 1.09765625 9.9609375 C1 13 1 13 0 15 C-0.66 15 -1.32 15 -2 15 C-1.47462276 9.9697924 -0.89405214 4.98114761 0 0 Z " fill="#77C6BA" transform="translate(224,336)"/>
<path d="M0 0 C0.99 0 1.98 0 3 0 C1.61122646 3.35620271 0.08322035 5.07298728 -3 7 C-3.66 7 -4.32 7 -5 7 C-5.33 5.68 -5.66 4.36 -6 3 C-4.02 3 -2.04 3 0 3 C0 2.01 0 1.02 0 0 Z " fill="#63BBAF" transform="translate(273,426)"/>
<path d="M0 0 C1.98 0 3.96 0 6 0 C6.66 1.65 7.32 3.3 8 5 C7.01 5.33 6.02 5.66 5 6 C3.35 4.02 1.7 2.04 0 0 Z " fill="#65BCB0" transform="translate(347,425)"/>
<path d="M0 0 C1.32 0.33 2.64 0.66 4 1 C4 1.66 4 2.32 4 3 C4.66 3.33 5.32 3.66 6 4 C6.625 6.5625 6.625 6.5625 7 9 C4.03595495 6.19195732 1.55500981 3.81684226 0 0 Z " fill="#74BFB7" transform="translate(45,410)"/>
<path d="M0 0 C3.63 0.33 7.26 0.66 11 1 C11 1.99 11 2.98 11 4 C7.0507432 3.44894091 3.65079826 2.61064629 0 1 C0 0.67 0 0.34 0 0 Z " fill="#69BDB0" transform="translate(93,446)"/>
<path d="M0 0 C4.42857143 5.14285714 4.42857143 5.14285714 5 9 C4.01 9 3.02 9 2 9 C0.14223235 5.86501708 -0.20140476 3.62528568 0 0 Z " fill="#79C3B7" transform="translate(459,347)"/>
<path d="M0 0 C2.31 0.66 4.62 1.32 7 2 C7.33 3.32 7.66 4.64 8 6 C4.63408134 4.55746343 2.48952921 2.66735273 0 0 Z " fill="#74C0B5" transform="translate(61,427)"/>
<path d="M0 0 C-0.33 0.99 -0.66 1.98 -1 3 C-4.3 3 -7.6 3 -11 3 C-6.9903514 0.32690093 -4.82843714 0 0 0 Z " fill="#68BDAF" transform="translate(197,385)"/>
<path d="M0 0 C0.66 0 1.32 0 2 0 C1.34 2.97 0.68 5.94 0 9 C-1.74627478 6.38058783 -2.38722388 4.96175123 -3 2 C-2.01 2.33 -1.02 2.66 0 3 C0 2.01 0 1.02 0 0 Z " fill="#5AB9AD" transform="translate(28,371)"/>
<path d="M0 0 C0.99 0.33 1.98 0.66 3 1 C1.25 6.75 1.25 6.75 -1 9 C-0.67 6.03 -0.34 3.06 0 0 Z " fill="#64BBAE" transform="translate(461,406)"/>
<path d="M0 0 C2.64 0 5.28 0 8 0 C8.33 0.99 8.66 1.98 9 3 C5.26512223 2.5020163 3.18762365 2.12508244 0 0 Z " fill="#74C1B6" transform="translate(375,445)"/>
<path d="" fill="#FFFFFF" transform="translate(0,0)"/>
<path d="" fill="#FFFFFF" transform="translate(0,0)"/>
<path d="" fill="#FFFFFF" transform="translate(0,0)"/>
<path d="" fill="#FFFFFF" transform="translate(0,0)"/>
<path d="" fill="#FFFFFF" transform="translate(0,0)"/>
<path d="" fill="#FFFFFF" transform="translate(0,0)"/>
<path d="" fill="#FFFFFF" transform="translate(0,0)"/>
<path d="" fill="#FFFFFF" transform="translate(0,0)"/>
<path d="" fill="#FFFFFF" transform="translate(0,0)"/>
<path d="" fill="#FFFFFF" transform="translate(0,0)"/>
<path d="" fill="#FFFFFF" transform="translate(0,0)"/>
<path d="" fill="#FFFFFF" transform="translate(0,0)"/>
<path d="" fill="#FFFFFF" transform="translate(0,0)"/>
<path d="" fill="#FFFFFF" transform="translate(0,0)"/>
<path d="" fill="#FFFFFF" transform="translate(0,0)"/>
<path d="" fill="#FFFFFF" transform="translate(0,0)"/>
<path d="" fill="#FFFFFF" transform="translate(0,0)"/>
<path d="" fill="#FFFFFF" transform="translate(0,0)"/>
<path d="" fill="#FFFFFF" transform="translate(0,0)"/>
<path d="" fill="#FFFFFF" transform="translate(0,0)"/>
<path d="" fill="#FFFFFF" transform="translate(0,0)"/>
<path d="" fill="#FFFFFF" transform="translate(0,0)"/>
<path d="" fill="#FFFFFF" transform="translate(0,0)"/>
<path d="" fill="#FFFFFF" transform="translate(0,0)"/>
<path d="" fill="#FFFFFF" transform="translate(0,0)"/>
<path d="" fill="#FFFFFF" transform="translate(0,0)"/>
<path d="" fill="#FFFFFF" transform="translate(0,0)"/>
<path d="" fill="#FFFFFF" transform="translate(0,0)"/>
<path d="" fill="#FFFFFF" transform="translate(0,0)"/>
<path d="" fill="#FFFFFF" transform="translate(0,0)"/>
<path d="" fill="#FFFFFF" transform="translate(0,0)"/>
<path d="" fill="#FFFFFF" transform="translate(0,0)"/>
<path d="" fill="#FFFFFF" transform="translate(0,0)"/>
<path d="" fill="#FFFFFF" transform="translate(0,0)"/>
<path d="" fill="#FFFFFF" transform="translate(0,0)"/>
<path d="" fill="#FFFFFF" transform="translate(0,0)"/>
<path d="" fill="#FFFFFF" transform="translate(0,0)"/>
<path d="" fill="#FFFFFF" transform="translate(0,0)"/>
<path d="" fill="#FFFFFF" transform="translate(0,0)"/>
<path d="" fill="#FFFFFF" transform="translate(0,0)"/>
<path d="" fill="#FFFFFF" transform="translate(0,0)"/>
<path d="" fill="#FFFFFF" transform="translate(0,0)"/>
<path d="" fill="#FFFFFF" transform="translate(0,0)"/>
<path d="" fill="#FFFFFF" transform="translate(0,0)"/>
<path d="" fill="#FFFFFF" transform="translate(0,0)"/>
<path d="" fill="#FFFFFF" transform="translate(0,0)"/>
<path d="" fill="#FFFFFF" transform="translate(0,0)"/>
<path d="" fill="#FFFFFF" transform="translate(0,0)"/>
<path d="" fill="#FFFFFF" transform="translate(0,0)"/>
<path d="" fill="#FFFFFF" transform="translate(0,0)"/>
<path d="" fill="#FFFFFE" transform="translate(0,0)"/>
<path d="" fill="#FFFFFF" transform="translate(0,0)"/>
<path d="" fill="#FFFFFF" transform="translate(0,0)"/>
<path d="" fill="#FFFFFF" transform="translate(0,0)"/>
<path d="" fill="#FFFFFF" transform="translate(0,0)"/>
<path d="" fill="#FFFFFF" transform="translate(0,0)"/>
<path d="" fill="#FFFFFF" transform="translate(0,0)"/>
<path d="" fill="#FFFFFF" transform="translate(0,0)"/>
<path d="" fill="#FFFFFF" transform="translate(0,0)"/>
<path d="" fill="#FFFFFF" transform="translate(0,0)"/>
<path d="" fill="#FFFFFF" transform="translate(0,0)"/>
<path d="" fill="#FFFFFF" transform="translate(0,0)"/>
<path d="" fill="#FFFFFF" transform="translate(0,0)"/>
<path d="" fill="#FFFFFF" transform="translate(0,0)"/>
<path d="" fill="#FFFFFF" transform="translate(0,0)"/>
<path d="" fill="#FFFFFF" transform="translate(0,0)"/>
<path d="" fill="#FFFFFF" transform="translate(0,0)"/>
<path d="" fill="#FFFFFF" transform="translate(0,0)"/>
<path d="" fill="#FFFFFF" transform="translate(0,0)"/>
<path d="" fill="#FFFFFF" transform="translate(0,0)"/>
<path d="" fill="#FFFFFF" transform="translate(0,0)"/>
<path d="" fill="#FFFFFF" transform="translate(0,0)"/>
<path d="" fill="#FFFFFF" transform="translate(0,0)"/>
</svg>
